<svg xmlns="http://www.w3.org/2000/svg" viewBox="0 0 512 512"><title>merge</title><path d="M208,112.1H112.3V239.9h74.3a31.1,31.1,0,0,0-2-2.5c-2.3-2.4-4.7-4.7-7.1-7.1-7.8-7.8-8.4-16.9-1.6-23.8s16.1-6.5,23.8,1.2l32.4,32.4c1.7,1.6,3.4,3.3,5,5,6.1,6.7,6.2,15.4-.1,21.9q-19,19.3-38.5,38.4c-6.8,6.7-16.1,6.6-22.4.2s-6.6-15.7.2-22.7c3.3-3.4,6.9-6.7,11-10.7h-75V399.7H208V336.8c0-12,8.7-19,20.4-16.3,6,1.4,9.8,5.3,11.1,11.4a37.8,37.8,0,0,1,.5,6.7c.1,22.2.1,44.5.1,66.7-.1,16.4-10.3,26.8-26.7,26.8H106.6c-16.4,0-26.7-10.3-26.7-26.8V106.9c0-16.7,10.2-27,26.9-27H213.2c16.7,0,26.9,10.3,26.9,27,0,22.7,0,45.5-.1,68.2,0,12-8.3,18.8-20,16.4-7.4-1.4-12-7.3-12-15.8V112.1Z" fill="#04ba0d"/><path d="M304,399.9h95.7V272.1H326.6c4.1,4.1,7.7,7.6,11.1,11.3s5.9,10.2,3.7,16.2-7.2,9.8-13.8,10.6-9.2-1.4-12.8-4.9l-31-31.1c-1.9-1.9-4-3.7-6.1-5.5-7.4-6-7.9-18-1-24.6,8.4-8.1,16.7-16.1,25-24.3,4.4-4.2,8.6-8.7,13-12.9,7.1-6.9,16.5-7,23-.3s6.2,15.8-.6,22.7c-3.4,3.3-6.9,6.4-10.3,9.6l.6.9h72.3V112.3H304v62.8c0,12-8.4,18.8-20,16.4a14,14,0,0,1-11.5-11.4,33.5,33.5,0,0,1-.5-6.3q-.2-33.7-.1-67.5c.1-15.9,10.4-26.3,26.3-26.4H405.8c15.9.1,26.2,10.5,26.3,26.4V404.8c0,17.1-10.1,27.3-27.2,27.3H299.1c-17.1,0-27.2-10.1-27.2-27.3q0-34.1.1-67.9c0-12,8.3-18.8,20-16.5,7.4,1.5,12,7.4,12,15.9v63.6Z" fill="#04ba0d"/></svg>